<svg id="visual" viewBox="0 0 900 600" width="900" height="600" xmlns="http://www.w3.org/2000/svg" xmlns:xlink="http://www.w3.org/1999/xlink" version="1.1"><rect x="0" y="0" width="900" height="600" fill="#7DF9FF"></rect><defs><linearGradient id="grad1_0" x1="33.3%" y1="0%" x2="100%" y2="100%"><stop offset="20%" stop-color="#212121" stop-opacity="1"></stop><stop offset="80%" stop-color="#212121" stop-opacity="1"></stop></linearGradient></defs><defs><linearGradient id="grad1_1" x1="33.3%" y1="0%" x2="100%" y2="100%"><stop offset="20%" stop-color="#212121" stop-opacity="1"></stop><stop offset="80%" stop-color="#3a5051" stop-opacity="1"></stop></linearGradient></defs><defs><linearGradient id="grad1_2" x1="33.3%" y1="0%" x2="100%" y2="100%"><stop offset="20%" stop-color="#518587" stop-opacity="1"></stop><stop offset="80%" stop-color="#3a5051" stop-opacity="1"></stop></linearGradient></defs><defs><linearGradient id="grad1_3" x1="33.3%" y1="0%" x2="100%" y2="100%"><stop offset="20%" stop-color="#518587" stop-opacity="1"></stop><stop offset="80%" stop-color="#67bdc1" stop-opacity="1"></stop></linearGradient></defs><defs><linearGradient id="grad1_4" x1="33.3%" y1="0%" x2="100%" y2="100%"><stop offset="20%" stop-color="#7df9ff" stop-opacity="1"></stop><stop offset="80%" stop-color="#67bdc1" stop-opacity="1"></stop></linearGradient></defs><defs><linearGradient id="grad2_0" x1="0%" y1="0%" x2="66.7%" y2="100%"><stop offset="20%" stop-color="#212121" stop-opacity="1"></stop><stop offset="80%" stop-color="#212121" stop-opacity="1"></stop></linearGradient></defs><defs><linearGradient id="grad2_1" x1="0%" y1="0%" x2="66.7%" y2="100%"><stop offset="20%" stop-color="#3a5051" stop-opacity="1"></stop><stop offset="80%" stop-color="#212121" stop-opacity="1"></stop></linearGradient></defs><defs><linearGradient id="grad2_2" x1="0%" y1="0%" x2="66.7%" y2="100%"><stop offset="20%" stop-color="#3a5051" stop-opacity="1"></stop><stop offset="80%" stop-color="#518587" stop-opacity="1"></stop></linearGradient></defs><defs><linearGradient id="grad2_3" x1="0%" y1="0%" x2="66.7%" y2="100%"><stop offset="20%" stop-color="#67bdc1" stop-opacity="1"></stop><stop offset="80%" stop-color="#518587" stop-opacity="1"></stop></linearGradient></defs><defs><linearGradient id="grad2_4" x1="0%" y1="0%" x2="66.7%" y2="100%"><stop offset="20%" stop-color="#67bdc1" stop-opacity="1"></stop><stop offset="80%" stop-color="#7df9ff" stop-opacity="1"></stop></linearGradient></defs><g transform="translate(900, 0)"><path d="M0 513.8C-90.1 500.5 -180.2 487.2 -256.9 445C-333.6 402.7 -396.8 331.5 -437.3 252.5C-477.9 173.5 -495.9 86.8 -513.8 0L0 0Z" fill="#72dbe0"></path><path d="M0 411C-72.1 400.4 -144.2 389.8 -205.5 356C-266.8 322.2 -317.4 265.2 -349.9 202C-382.3 138.8 -396.7 69.4 -411 0L0 0Z" fill="#5ca0a4"></path><path d="M0 308.3C-54.1 300.3 -108.1 292.3 -154.1 267C-200.1 241.6 -238.1 198.9 -262.4 151.5C-286.7 104.1 -297.5 52.1 -308.3 0L0 0Z" fill="#466a6c"></path><path d="M0 205.5C-36 200.2 -72.1 194.9 -102.8 178C-133.4 161.1 -158.7 132.6 -174.9 101C-191.2 69.4 -198.3 34.7 -205.5 0L0 0Z" fill="#2e3838"></path><path d="M0 102.8C-18 100.1 -36 97.4 -51.4 89C-66.7 80.5 -79.4 66.3 -87.5 50.5C-95.6 34.7 -99.2 17.4 -102.8 0L0 0Z" fill="#212121"></path></g><g transform="translate(0, 600)"><path d="M0 -513.8C96.2 -504 192.5 -494.3 256.9 -445C321.3 -395.6 353.9 -306.8 391.4 -226C429 -145.2 471.4 -72.6 513.8 0L0 0Z" fill="#72dbe0"></path><path d="M0 -411C77 -403.2 154 -395.4 205.5 -356C257.1 -316.5 283.1 -245.4 313.2 -180.8C343.2 -116.2 377.1 -58.1 411 0L0 0Z" fill="#5ca0a4"></path><path d="M0 -308.3C57.7 -302.4 115.5 -296.6 154.1 -267C192.8 -237.4 212.4 -184.1 234.9 -135.6C257.4 -87.1 282.8 -43.6 308.3 0L0 0Z" fill="#466a6c"></path><path d="M0 -205.5C38.5 -201.6 77 -197.7 102.8 -178C128.5 -158.3 141.6 -122.7 156.6 -90.4C171.6 -58.1 188.5 -29 205.5 0L0 0Z" fill="#2e3838"></path><path d="M0 -102.8C19.2 -100.8 38.5 -98.9 51.4 -89C64.3 -79.1 70.8 -61.4 78.3 -45.2C85.8 -29 94.3 -14.5 102.8 0L0 0Z" fill="#212121"></path></g></svg>